<svg height="233" viewBox=".01 -9.09 3776.33 343.01" width="2500" xmlns="http://www.w3.org/2000/svg"><path d="m2223.23 190.42-114.19-.86-.3-46.3 147.55-.42c12.2-.03 18.32 11.32 18.19 22.45-1.07 91.07-71.55 157.66-162.5 152.57-81.22-4.54-145.17-67.86-149.73-147.21-4.65-81.02 52.66-151.54 135.27-163.45 76.22-10.99 147.85 32.31 171.58 105.74l-49.63.45c-21.55-42.47-64.11-65.65-110.07-60.75-46.86 5-86.92 37.39-95.5 85.95-5.91 33.43-.24 66.47 21.47 93.28 18.63 23.01 49.74 38.52 83.24 39.48 49.59 1.42 94.4-26.47 104.62-80.94zm1062.7 93.69c0 14.02-8.52 25.6-17.79 28.59-9.92 3.2-23.87.49-30.78-8.59l-155.11-203.89-1.2 213.67-48.7-.25-.06-275.55c0-10.88 8.73-23.1 16.04-26.21 11.77-5 26.75-1.44 34.38 8.62l152.32 200.8 2.22-211.44 48.51.09.15 274.16zm-816.06 30.4-67.75-102.21-41.37.07-.31 101.54-47.93-.27v-304.24l103.94.08c31.86.02 61.09 16.59 78.04 37.68 21.11 26.26 28 59.16 19.31 91.18s-30.38 51.89-60.87 64.47l73.96 110.22-57.01 1.49zm-45.77-151.86c30.59-4.52 46.65-32.52 43.99-58.51-2.43-23.72-22.76-46.95-50.04-47.43l-57.36-1v108.72c21.75.25 42.4 1.33 63.41-1.78zm-672.21 31.9 50.24-.34c-18.7 88.87-104.74 139.71-192.2 119.33-71.75-16.72-118.38-75.68-119.8-148.46-1.49-76.51 47.46-139.16 122.73-155.65 84.54-18.52 167.5 29.61 186.56 116.22l-49.5.15c-16.71-50.93-63.75-77.83-113.01-73.22-51.6 4.83-91.27 43.62-96.46 96.69-5.93 60.6 32 112.37 92.6 120.9 52.89 7.45 102.29-19.8 118.84-75.62zm-1516.23 59.9-157.3-.51-26.12 60.06-52.23-1 123.01-281.85c5.78-13.23 20.12-21.66 32.69-21.86 14.25-.23 28.71 8.67 35.08 23.26l122.41 280.26-51.99 1.74zm-21.49-48.18-58.01-133.1-57.31 133.82zm508.8 104.92c-15 3.07-31.07 3.05-49.11 2.63l-.26-129.16-132.96-.13-.33 129.26h-48.57l-.21-302.21c15.73-2.27 31.21-2.43 48.76-1.69l.29 126.89 132.95.36.33-127.53 48.94.25.18 301.33zm2030.36-126.52-143.37.5.19 81.63 142.87.44-.3 46.78-191.37.05-.12-304.74 191.68-.19.19 47.73-142.99.24.23 80.7 142.62.19zm235.54.12-143.28.27-.06 81.76 143.16.44-.37 46.78-191.97-.04-.02-304.71 192.02-.06.37 47.76-142.73.02-.61 80.75 143.16.28zm-1827.56-.17-126.55.39-.69 81.75 126.35.54.11 46.72h-174.96l-.11-304.11 175.06-.84.3 47.85-126.52.25-.01 80.63 126.38.22zm2358.91 78.91c-20.9 42.11-64.01 58.29-108.1 53.89-53.73-5.36-94.58-43.38-94.5-100.05l47.62-.47c3.23 29.16 19.36 48.15 47.26 53.19 19.34 3.49 39.91.94 54.8-12.96 9.47-8.84 14.29-26.61 11.67-39.65-1.97-9.81-14.54-22.11-26.67-26.78l-72.16-27.75c-29.01-11.16-48.2-37.22-50.94-64.34-3.08-30.47 9.31-58.68 36.56-75.8 36.91-23.19 87.36-24.16 124.15.43 26.04 17.41 37.36 46.04 39.66 75.62l-48.73.13c-1.17-26.54-13.96-42.54-37.88-47.32-14.24-2.85-31.72-1.49-44.84 5.27-13.11 6.76-20.42 21.13-19.56 34.86 1.98 31.56 58.26 37.96 105.05 61.41 41.35 20.73 57.78 67.63 36.6 110.32zm256.12-155.49c0 59.67-48.38 108.04-108.07 108.04s-108.07-48.37-108.07-108.04 48.38-108.04 108.07-108.04 108.07 48.37 108.07 108.04zm-37.54.02c0-38.93-31.57-70.49-70.51-70.49s-70.51 31.56-70.51 70.49 31.57 70.49 70.51 70.49 70.51-31.56 70.51-70.49zm-2785.89 159.09.28 46.91-140.73-.18c-19.1-.02-44.03-18.56-44.08-40.49l-.66-263.55 48.26-.22.23 257.25 136.7.27zm-556.49 46.97-48.22-.48-.5-257.69-75.13-.58.75-46.09 185.06-.12.71 46.16-62.16.62zm906.1-.77-49.11.42-.06-257.47-62.3-.98.16-46.15 173.43.1.4 45.57-62.48 1.93zm96.84-304.17h48.73v304.89h-48.73z"/><path d="m3709.77 148.83h-24.94l-9.61-19.01-4.93-9.76s-12.41-.02-12.41.05v14.36c.07 5.56 0 14.43 0 14.43s-18.12.03-22.99-.06l-.13-88.96 43.21-.27c13.24 0 24.46 11.04 24.46 29.62 0 19.93-10.81 26.43-10.81 26.43zm-34.68-69.01-17.2.12-.02 19.81h17.82c10.51 0 10.38-19.93-.6-19.93z"/></svg>