<svg data-name="Layer 1" xmlns="http://www.w3.org/2000/svg" viewBox="0 0 336.85 340.14" width="2476" height="2500"><defs><linearGradient id="a" x1="1045.28" y1="64.61" x2="1045.28" y2="-705.33" gradientTransform="translate(-288.89 29.91) scale(.44 -.44)" gradientUnits="userSpaceOnUse"><stop offset="0" stop-color="#60b4e7"/><stop offset="1" stop-color="#6461e0"/></linearGradient></defs><path d="M261.85 1.65H75c-41.42 0-75 33.58-75 75V263.5c0 41.42 33.58 75 75 75h186.85c41.42 0 75-33.58 75-75V76.65c0-41.42-33.58-75-75-75" fill-rule="evenodd" fill="url(#a)"/><path d="M38.86 129.99a89.2 89.2 0 0 0-11.53 18.81c-3.11 6.87-5.46 14.24-6.69 21.9-5.95 42.01 19.58 48.7 23.93 49.52 22.38 2.61 38.86-9.59 46.65-17.07 2.81 14.02 16.81 14.19 22.95 7.86 1.57-1.62 2.82-3.6 3.79-5.67 3.64 13.26 15.3 8.74 16.67 8.15 6.5-2.44 13.3-11.5 18.11-19.11 3.05 10.43 8.95 21.6 20.27 20.4 6.82-.17 23.93-18.38 25.52-16 1.58 1.97 2 5.58 1.89 10.96s4.17 5.66 6.11 5.12c2.99-.83 4.87-6.73 8-11.86 2.45-4.02 4.28-6.3 6.72-8.98 1.23-1.32 6.78-7.08 10.7-5.12 3.92 1.95 4.32 5.97 4.59 8.19.3 2.23.3 4.59.4 7.18-.11 8.92 4.07 10.18 5.25 10.51 9.68 2.62 10.28-15.61 17.38-22.38.67-.69 6.87-7.11 10.42 3.36 5.12 18.92 20.87 26 42.08 15.47 3.93-1.95 4.71-2.72 6.85-4.32.52-.39.83-1 .83-1.65v-.03c0-1.14-.93-2.06-2.06-2.06-.35 0-.7.09-1 .26h-.01c-2.17 1.21-9.39 3.63-11.67 4.45-8.56 1.4-19.04 1.08-24.2-11.44-1.56-3.77-3.09-7.17-5.76-10.74-3.01-4.04-12.86-8.84-22.05-.18-2.39 2.19-4.15 4.62-5.68 7.04-.62.99-1.2 1.98-1.74 2.98l-.11-.39c-.81-2.81-3.41-13.17-14.22-14.86-1.48-.12-7.5-.8-15.82 8.34-2.91 3.17-5.33 6.55-7.58 9.96-.4-1.84-.88-3.53-1.36-4.27-7.07-10.9-17.78-2.2-22.4 1.05-10.33 7.28-15.13 17.06-21.43-5.16-.82-3.15-1.47-6.34-1.96-9.55 6.28-10.68 19.06-43.19 11.72-64.99-.48-1.38-3.03-8.41-9.17-7.96-.88.09-7.88-.65-11.7 18.93-3.58 18.93-2.79 43.32-1.92 51.41.1.84.28 2.49.61 4.66-6.05 10.37-14 22.17-18.84 22.72-6.29.72-4.54-5.09-8.38-18-.66-1.67-2.78-9.65-12.33-9.25-4.67.19-9.61 1.41-16.36 8.81C83.37 199 58.38 217.05 40.5 205.71c-1.94-1.51-11.6-9.42-8.04-33.12 1.05-6.5 3.05-12.91 5.73-18.9a83.3 83.3 0 0 1 9.82-16.56c18.37-22.59 34.27-25.23 37.41-25.1 8.05 0 10.14 10.44 10.13 10.34a3.325 3.325 0 0 0 3.55 3.09 3.325 3.325 0 0 0 3.07-3.74c-.02-.09.02-3.41-1.36-6.56-1.26-4.11-4.89-7.92-7-9.33-2.61-1.82-6.06-2.79-10.12-2.79-11.68 0-28.45 8.01-44.81 26.92Zm120.33 32.97c-.09-36.8 4.58-45.15 4.93-44.51 1.78 3.31 5.62 24.03-4.85 46.67l-.08-2.17Zm-60.57 36.15c.14-9.74 12.24-15.86 15.49-9.08.27.55.45 1.18.62 1.79-.56 1.79-.79 4.68-2.69 8.6-2.01 4.14-5.16 6.19-7.91 6.19-3.04 0-5.58-2.52-5.51-7.51Z" fill="#fff" fill-rule="evenodd"/></svg>