<svg xmlns="http://www.w3.org/2000/svg" viewBox="0 0 21.42 23.81">
	<defs><style> 
    .fav-icon-path{fill:#231f20;}
    @media (prefers-color-scheme: dark) {
      .fav-icon-path{fill:#fff;}
    }
  </style></defs><g id="Layer_2" data-name="Layer 2"><g id="Layer_1-2" data-name="Layer 1"><path class="fav-icon-path" d="M21.2,11.13h0a8.43,8.43,0,0,0-1.06-2.61,9.31,9.31,0,0,0-1.8-2.14A9.44,9.44,0,0,0,16,4.82,8.61,8.61,0,0,0,13.36,4a9.82,9.82,0,0,0-2.8.08A9.71,9.71,0,0,0,7.05,5.67,9.19,9.19,0,0,0,5.61,7,9.47,9.47,0,0,0,4.47,8.52,9.91,9.91,0,0,0,3.39,16,9.48,9.48,0,0,0,5,19.42,10.39,10.39,0,0,0,7.76,22a10.5,10.5,0,0,0,2,1,11,11,0,0,1-4-1.82,10.61,10.61,0,0,1-3.06-3.47A10.29,10.29,0,0,1,1.37,13.2,10.76,10.76,0,0,1,3.15,6.55c.19-.29.41-.6.65-.91a10.7,10.7,0,0,1,2.08-2,9.33,9.33,0,0,1,3-1.45,13.47,13.47,0,0,1,3.87-.36h.22L13.86.11h-.21C13.58.1,12,0,11.6,0a10.54,10.54,0,0,0-1.28.1,10.7,10.7,0,0,0-2.5.67A11,11,0,0,0,5.56,2a14,14,0,0,0-1.94,1.7A15.69,15.69,0,0,0,2,5.74c-.09.14-.18.28-.26.42l-.17.28-.23.44A10.29,10.29,0,0,0,.8,8.09,12.48,12.48,0,0,0,0,13.29a11.51,11.51,0,0,0,1.54,5A11.29,11.29,0,0,0,5.13,22a9.91,9.91,0,0,0,1.11.63,11.24,11.24,0,0,0,1.16.5c.42.16.85.27,1.21.37a11.48,11.48,0,0,0,1.24.21,11.17,11.17,0,0,0,1.29.08,11.88,11.88,0,0,0,4.4-1l-.08-.26a10.59,10.59,0,0,1-7.34-1.22,9.19,9.19,0,0,1-1.37-1.06A8.55,8.55,0,0,1,5.61,19a8.65,8.65,0,0,1-1.4-3.18A8.72,8.72,0,0,1,5.42,9.15,8.62,8.62,0,0,1,6.5,7.84a8.75,8.75,0,0,1,1-.84l-.09.16a8.33,8.33,0,0,0-1,3.4A9.9,9.9,0,0,0,6.78,14a10.33,10.33,0,0,0,3.92,5.5,11.12,11.12,0,0,0,6.2,2l0-.27a11.25,11.25,0,0,1-3.08-.78,10.73,10.73,0,0,1-2.71-1.59A10.28,10.28,0,0,1,9,16.62a9.52,9.52,0,0,1-1.26-2.86,8.75,8.75,0,0,1-.22-3.09,8.06,8.06,0,0,1,.89-2.92,7.46,7.46,0,0,1,.84-1.26,7.26,7.26,0,0,1,.5-.57,4.26,4.26,0,0,1,.38-.32,6.75,6.75,0,0,1,.68-.17,8.69,8.69,0,0,1,2.41-.09,7.39,7.39,0,0,1,2.34.59,8.5,8.5,0,0,1,2.09,1.29,8.29,8.29,0,0,1,1.67,1.84,8.06,8.06,0,0,1,1,2.29,8.15,8.15,0,0,1-.83,6c-.2.31-.4.63-.59.9s-.25.34-.37.48l-.27.31h.89a10.26,10.26,0,0,0,2.18-5.15,8.16,8.16,0,0,0-.17-2.8"/></g></g></svg>